<svg viewBox="0 0 394 292" xmlns="http://www.w3.org/2000/svg"><path d="M14 101h366v146.085c0 12.462-9.539 22.851-21.956 23.913C303.434 275.666 249.752 278 197 278c-52.752 0-106.433-2.334-161.044-7.002C23.539 269.936 14 259.548 14 247.085V101zm41.222 71.508c-2.296-2.378-6.232-4.51-10.66-4.51-9.758 0-14.76 6.56-14.76 17.548v11.48c0 10.988 5.084 17.63 15.006 17.63 4.592 0 8.856-2.214 11.152-4.838L57.272 214h7.79v-61.5h-9.84v20.008zm0 29.192c-1.886 1.968-4.838 3.69-7.872 3.69-5.494 0-7.708-3.034-7.708-9.348v-9.43c0-6.314 2.214-9.348 7.708-9.348 3.034 0 5.986 1.64 7.872 3.608V201.7zm28.7-15.252c0-5.33 1.804-9.676 8.282-9.676 3.362 0 5.986 1.394 8.446 5.002l6.642-5.494c-3.198-4.838-7.79-8.282-15.088-8.282-11.89 0-18.122 6.806-18.122 17.63v11.398c0 10.824 6.478 17.63 18.368 17.63 7.298 0 11.972-3.69 14.924-8.364l-6.15-5.494c-3.116 4.264-5.576 5.084-8.774 5.084-6.478 0-8.528-4.346-8.528-9.676v-9.758zm48.052 27.962c2.706 0 6.15-.656 9.676-2.378l-2.05-7.462c-1.968.574-4.346 1.066-6.642 1.066-3.608 0-4.92-1.476-4.92-5.002v-23.698h11.89v-8.282h-11.89v-9.758l-9.676 1.066v8.692l-7.708.492v7.79h7.544v23.862c0 8.774 3.936 13.612 13.776 13.612zm15.826-15.99c0 10.086 5.822 16.236 17.548 16.236 6.888 0 11.07-2.05 15.662-4.674l-3.28-7.298c-4.264 2.296-6.806 3.444-11.972 3.444-5.986 0-8.118-3.362-8.118-6.806v-4.428h24.354v-9.348c0-11.07-5.084-17.548-16.974-17.548-11.644 0-17.22 6.724-17.22 17.548v12.874zm17.22-21.894c5.986 0 7.38 3.526 7.38 10.66h-14.76c0-7.544 1.476-10.66 7.38-10.66zm33.784 9.922c0-5.33 1.804-9.676 8.282-9.676 3.362 0 5.986 1.394 8.446 5.002l6.642-5.494c-3.198-4.838-7.79-8.282-15.088-8.282-11.89 0-18.122 6.806-18.122 17.63v11.398c0 10.824 6.478 17.63 18.368 17.63 7.298 0 11.972-3.69 14.924-8.364l-6.15-5.494c-3.116 4.264-5.576 5.084-8.774 5.084-6.478 0-8.528-4.346-8.528-9.676v-9.758zm40.18-33.948h-9.84V214h9.84v-32.8c1.558-1.558 5.084-3.69 8.61-3.69 4.592 0 7.216 2.214 7.216 8.528V214h9.84v-30.094c0-8.938-3.854-15.908-13.612-15.908-5.33 0-9.512 2.46-12.054 4.674V152.5zm35.752 61.5h11.972v-12.218h-11.972V214zm40.016.41c2.706 0 6.15-.656 9.676-2.378l-2.05-7.462c-1.968.574-4.346 1.066-6.642 1.066-3.608 0-4.92-1.476-4.92-5.002v-23.698h11.89v-8.282h-11.89v-9.758l-9.676 1.066v8.692l-7.708.492v7.79h7.544v23.862c0 8.774 3.936 13.612 13.776 13.612zm37.802-.41l13.94-45.346h-10.578l-8.364 32.062h-.328c-8.282-31.652-8.364-32.062-8.364-32.062h-10.496L342.222 214h10.332zM296.421 15.564L275.184 61.11l-72.836 7.778 22.08-47.351a2750.146 2750.146 0 0 1 71.993-5.972zm30.722-1.995c9.125-.547 18.334-1.06 27.626-1.537 13.237-.68 24.52 9.5 25.2 22.737a24 24 0 0 1 .031 1.232v13.914l-73.464 7.845 20.607-44.191zM193.135 24.756l-22.14 47.479-69.678 7.44 21.585-46.288c24.27-3.287 47.681-6.163 70.233-8.63zM91.022 37.866L69.965 83.025 14 89V70.298c0-11.778 8.546-21.815 20.173-23.693a3682.38 3682.38 0 0 1 56.849-8.738z" fill="#000" fill-rule="evenodd"/></svg>
