<?xml version="1.0" encoding="UTF-8"?>
<svg width="1155px" height="266px" viewBox="0 0 1155 266" version="1.1" xmlns="http://www.w3.org/2000/svg" xmlns:xlink="http://www.w3.org/1999/xlink">
    <!-- Generator: Sketch 46.2 (44496) - http://www.bohemiancoding.com/sketch -->
    <title>Slice</title>
    <desc>Created with Sketch.</desc>
    <defs></defs>
    <g id="Page-1" stroke="none" stroke-width="1" fill="none" fill-rule="evenodd">
        <path d="M0,89 L366,89 L366,235.084947 L366,235.084947 C366,247.547423 356.461281,257.936307 344.044088,258.99774 C289.433382,263.665913 235.75202,266 183,266 C130.24798,266 76.5666179,263.665913 21.955913,258.99774 L21.955913,258.997741 C9.53871959,257.936308 1.52621325e-15,247.547424 0,235.084947 L0,89 Z" id="Rectangle" fill="#FFFFFF"></path>
        <path d="M282.421493,3.56448446 C257.789364,5.29026751 233.791588,7.28075112 210.428164,9.53593527 L188.348209,56.88655 L261.183961,49.1085189 L282.421493,3.56448446 Z M313.143204,1.56900594 C322.268193,1.02195861 331.476662,0.509745317 340.768611,0.0323660512 L340.768611,0.032366965 C354.005986,-0.6477109 365.288311,9.53199 365.968389,22.7693653 C365.98946,23.1794906 366,23.5900891 366,24.0007552 L366,37.9153561 L292.536402,45.7604341 L313.143204,1.56900594 Z M179.135329,12.7561934 C156.583113,15.2235629 133.172043,18.1003573 108.902119,21.3865764 L87.3172343,67.6755109 L156.995768,60.2346348 L179.135329,12.7561927 Z M77.0217326,25.8668426 C58.5412034,28.5559876 39.5917578,31.46867 20.1733961,34.6048897 L20.1733961,34.6048897 C8.54631506,36.4827558 4.36478868e-07,46.5201151 4.36478864e-07,58.2978651 L0,58.2978651 L0,77 L55.9647929,71.0235956 L77.0217326,25.8668426 Z" id="Combined-Shape" fill="#FFFFFF"></path>
        <g id="s" transform="translate(132.000000, 130.000000)" fill-rule="nonzero" fill="#E81B39">
            <g id="c" transform="translate(30.000000, 0.000000)">
                <polygon id="t" transform="translate(28.080439, 26.012802) rotate(18.000000) translate(-28.080439, -26.012802) " points="15.665456 3.35484998 15.665456 48.6707541 40.4954224 48.6707541"></polygon>
                <g id="t-link" transform="translate(19.587816, 26.000000) scale(-1, 1) translate(-19.587816, -26.000000) translate(0.087816, 0.000000)">
                    <polygon id="t" transform="translate(19.276315, 26.012802) rotate(18.000000) translate(-19.276315, -26.012802) " points="6.86133145 3.35484998 6.86133145 48.6707541 31.6912978 48.6707541"></polygon>
                </g>
            </g>
            <g id="c-link" transform="translate(73.500000, 39.000000) rotate(72.000000) translate(-73.500000, -39.000000) translate(50.000000, 13.000000)">
                <g id="c" transform="translate(0.000000, 0.000000)">
                    <polygon id="t" transform="translate(27.576057, 26.040635) rotate(18.000000) translate(-27.576057, -26.040635) " points="15.3364736 3.35750763 15.3364736 48.7237628 39.8156403 48.7237628"></polygon>
                    <g id="t-link" transform="translate(19.432292, 26.000000) scale(-1, 1) translate(-19.432292, -26.000000) translate(0.432292, 0.000000)">
                        <polygon id="t" transform="translate(19.008349, 26.040635) rotate(18.000000) translate(-19.008349, -26.040635) " points="6.76876531 3.35750763 6.76876531 48.7237628 31.247932 48.7237628"></polygon>
                    </g>
                </g>
            </g>
            <g id="c-link" transform="translate(65.500000, 62.000000) rotate(144.000000) translate(-65.500000, -62.000000) translate(42.000000, 36.000000)">
                <g id="c" transform="translate(-0.000000, 0.000000)">
                    <polygon id="t" transform="translate(27.576057, 26.040635) rotate(18.000000) translate(-27.576057, -26.040635) " points="15.3364736 3.35750763 15.3364736 48.7237628 39.8156403 48.7237628"></polygon>
                    <g id="t-link" transform="translate(19.432292, 26.000000) scale(-1, 1) translate(-19.432292, -26.000000) translate(0.432292, 0.000000)">
                        <polygon id="t" transform="translate(19.008349, 26.040635) rotate(18.000000) translate(-19.008349, -26.040635) " points="6.76876531 3.35750763 6.76876531 48.7237628 31.247932 48.7237628"></polygon>
                    </g>
                </g>
            </g>
            <g id="c-link" transform="translate(40.500000, 62.000000) rotate(-144.000000) translate(-40.500000, -62.000000) translate(17.000000, 36.000000)">
                <g id="c">
                    <polygon id="t" transform="translate(27.576057, 26.040635) rotate(18.000000) translate(-27.576057, -26.040635) " points="15.3364736 3.35750763 15.3364736 48.7237628 39.8156403 48.7237628"></polygon>
                    <g id="t-link" transform="translate(19.432292, 26.000000) scale(-1, 1) translate(-19.432292, -26.000000) translate(0.432292, 0.000000)">
                        <polygon id="t" transform="translate(19.008349, 26.040635) rotate(18.000000) translate(-19.008349, -26.040635) " points="6.76876531 3.35750763 6.76876531 48.7237628 31.247932 48.7237628"></polygon>
                    </g>
                </g>
            </g>
            <g id="c-link" transform="translate(32.500000, 39.000000) rotate(-72.000000) translate(-32.500000, -39.000000) translate(9.000000, 13.000000)">
                <g id="c" transform="translate(-0.000000, 0.000000)">
                    <polygon id="t" transform="translate(27.576057, 26.040635) rotate(18.000000) translate(-27.576057, -26.040635) " points="15.3364736 3.35750763 15.3364736 48.7237628 39.8156403 48.7237628"></polygon>
                    <g id="t-link" transform="translate(19.432292, 26.000000) scale(-1, 1) translate(-19.432292, -26.000000) translate(0.432292, -0.000000)">
                        <polygon id="t" transform="translate(19.008349, 26.040635) rotate(18.000000) translate(-19.008349, -26.040635) " points="6.76876531 3.35750763 6.76876531 48.7237628 31.247932 48.7237628"></polygon>
                    </g>
                </g>
            </g>
        </g>
        <g id="s" transform="translate(16.000000, 129.000000)" fill-rule="nonzero" fill="#E81B39">
            <g id="c" transform="translate(30.000000, 0.000000)">
                <polygon id="t" transform="translate(28.080439, 26.012802) rotate(18.000000) translate(-28.080439, -26.012802) " points="15.665456 3.35484998 15.665456 48.6707541 40.4954224 48.6707541"></polygon>
                <g id="t-link" transform="translate(19.587816, 26.000000) scale(-1, 1) translate(-19.587816, -26.000000) translate(0.087816, 0.000000)">
                    <polygon id="t" transform="translate(19.276315, 26.012802) rotate(18.000000) translate(-19.276315, -26.012802) " points="6.86133145 3.35484998 6.86133145 48.6707541 31.6912978 48.6707541"></polygon>
                </g>
            </g>
            <g id="c-link" transform="translate(73.500000, 39.000000) rotate(72.000000) translate(-73.500000, -39.000000) translate(50.000000, 13.000000)">
                <g id="c" transform="translate(0.000000, 0.000000)">
                    <polygon id="t" transform="translate(27.576057, 26.040635) rotate(18.000000) translate(-27.576057, -26.040635) " points="15.3364736 3.35750763 15.3364736 48.7237628 39.8156403 48.7237628"></polygon>
                    <g id="t-link" transform="translate(19.432292, 26.000000) scale(-1, 1) translate(-19.432292, -26.000000) translate(0.432292, 0.000000)">
                        <polygon id="t" transform="translate(19.008349, 26.040635) rotate(18.000000) translate(-19.008349, -26.040635) " points="6.76876531 3.35750763 6.76876531 48.7237628 31.247932 48.7237628"></polygon>
                    </g>
                </g>
            </g>
            <g id="c-link" transform="translate(65.500000, 62.000000) rotate(144.000000) translate(-65.500000, -62.000000) translate(42.000000, 36.000000)">
                <g id="c" transform="translate(-0.000000, 0.000000)">
                    <polygon id="t" transform="translate(27.576057, 26.040635) rotate(18.000000) translate(-27.576057, -26.040635) " points="15.3364736 3.35750763 15.3364736 48.7237628 39.8156403 48.7237628"></polygon>
                    <g id="t-link" transform="translate(19.432292, 26.000000) scale(-1, 1) translate(-19.432292, -26.000000) translate(0.432292, 0.000000)">
                        <polygon id="t" transform="translate(19.008349, 26.040635) rotate(18.000000) translate(-19.008349, -26.040635) " points="6.76876531 3.35750763 6.76876531 48.7237628 31.247932 48.7237628"></polygon>
                    </g>
                </g>
            </g>
            <g id="c-link" transform="translate(40.500000, 62.000000) rotate(-144.000000) translate(-40.500000, -62.000000) translate(17.000000, 36.000000)">
                <g id="c">
                    <polygon id="t" transform="translate(27.576057, 26.040635) rotate(18.000000) translate(-27.576057, -26.040635) " points="15.3364736 3.35750763 15.3364736 48.7237628 39.8156403 48.7237628"></polygon>
                    <g id="t-link" transform="translate(19.432292, 26.000000) scale(-1, 1) translate(-19.432292, -26.000000) translate(0.432292, 0.000000)">
                        <polygon id="t" transform="translate(19.008349, 26.040635) rotate(18.000000) translate(-19.008349, -26.040635) " points="6.76876531 3.35750763 6.76876531 48.7237628 31.247932 48.7237628"></polygon>
                    </g>
                </g>
            </g>
            <g id="c-link" transform="translate(32.500000, 39.000000) rotate(-72.000000) translate(-32.500000, -39.000000) translate(9.000000, 13.000000)">
                <g id="c" transform="translate(-0.000000, 0.000000)">
                    <polygon id="t" transform="translate(27.576057, 26.040635) rotate(18.000000) translate(-27.576057, -26.040635) " points="15.3364736 3.35750763 15.3364736 48.7237628 39.8156403 48.7237628"></polygon>
                    <g id="t-link" transform="translate(19.432292, 26.000000) scale(-1, 1) translate(-19.432292, -26.000000) translate(0.432292, -0.000000)">
                        <polygon id="t" transform="translate(19.008349, 26.040635) rotate(18.000000) translate(-19.008349, -26.040635) " points="6.76876531 3.35750763 6.76876531 48.7237628 31.247932 48.7237628"></polygon>
                    </g>
                </g>
            </g>
        </g>
        <g id="s" transform="translate(248.000000, 129.000000)" fill-rule="nonzero" fill="#E81B39">
            <g id="c" transform="translate(30.000000, 0.000000)">
                <polygon id="t" transform="translate(28.080439, 26.012802) rotate(18.000000) translate(-28.080439, -26.012802) " points="15.665456 3.35484998 15.665456 48.6707541 40.4954224 48.6707541"></polygon>
                <g id="t-link" transform="translate(19.587816, 26.000000) scale(-1, 1) translate(-19.587816, -26.000000) translate(0.087816, 0.000000)">
                    <polygon id="t" transform="translate(19.276315, 26.012802) rotate(18.000000) translate(-19.276315, -26.012802) " points="6.86133145 3.35484998 6.86133145 48.6707541 31.6912978 48.6707541"></polygon>
                </g>
            </g>
            <g id="c-link" transform="translate(73.500000, 39.000000) rotate(72.000000) translate(-73.500000, -39.000000) translate(50.000000, 13.000000)">
                <g id="c" transform="translate(0.000000, 0.000000)">
                    <polygon id="t" transform="translate(27.576057, 26.040635) rotate(18.000000) translate(-27.576057, -26.040635) " points="15.3364736 3.35750763 15.3364736 48.7237628 39.8156403 48.7237628"></polygon>
                    <g id="t-link" transform="translate(19.432292, 26.000000) scale(-1, 1) translate(-19.432292, -26.000000) translate(0.432292, 0.000000)">
                        <polygon id="t" transform="translate(19.008349, 26.040635) rotate(18.000000) translate(-19.008349, -26.040635) " points="6.76876531 3.35750763 6.76876531 48.7237628 31.247932 48.7237628"></polygon>
                    </g>
                </g>
            </g>
            <g id="c-link" transform="translate(65.500000, 62.000000) rotate(144.000000) translate(-65.500000, -62.000000) translate(42.000000, 36.000000)">
                <g id="c" transform="translate(-0.000000, 0.000000)">
                    <polygon id="t" transform="translate(27.576057, 26.040635) rotate(18.000000) translate(-27.576057, -26.040635) " points="15.3364736 3.35750763 15.3364736 48.7237628 39.8156403 48.7237628"></polygon>
                    <g id="t-link" transform="translate(19.432292, 26.000000) scale(-1, 1) translate(-19.432292, -26.000000) translate(0.432292, 0.000000)">
                        <polygon id="t" transform="translate(19.008349, 26.040635) rotate(18.000000) translate(-19.008349, -26.040635) " points="6.76876531 3.35750763 6.76876531 48.7237628 31.247932 48.7237628"></polygon>
                    </g>
                </g>
            </g>
            <g id="c-link" transform="translate(40.500000, 62.000000) rotate(-144.000000) translate(-40.500000, -62.000000) translate(17.000000, 36.000000)">
                <g id="c">
                    <polygon id="t" transform="translate(27.576057, 26.040635) rotate(18.000000) translate(-27.576057, -26.040635) " points="15.3364736 3.35750763 15.3364736 48.7237628 39.8156403 48.7237628"></polygon>
                    <g id="t-link" transform="translate(19.432292, 26.000000) scale(-1, 1) translate(-19.432292, -26.000000) translate(0.432292, 0.000000)">
                        <polygon id="t" transform="translate(19.008349, 26.040635) rotate(18.000000) translate(-19.008349, -26.040635) " points="6.76876531 3.35750763 6.76876531 48.7237628 31.247932 48.7237628"></polygon>
                    </g>
                </g>
            </g>
            <g id="c-link" transform="translate(32.500000, 39.000000) rotate(-72.000000) translate(-32.500000, -39.000000) translate(9.000000, 13.000000)">
                <g id="c" transform="translate(-0.000000, 0.000000)">
                    <polygon id="t" transform="translate(27.576057, 26.040635) rotate(18.000000) translate(-27.576057, -26.040635) " points="15.3364736 3.35750763 15.3364736 48.7237628 39.8156403 48.7237628"></polygon>
                    <g id="t-link" transform="translate(19.432292, 26.000000) scale(-1, 1) translate(-19.432292, -26.000000) translate(0.432292, -0.000000)">
                        <polygon id="t" transform="translate(19.008349, 26.040635) rotate(18.000000) translate(-19.008349, -26.040635) " points="6.76876531 3.35750763 6.76876531 48.7237628 31.247932 48.7237628"></polygon>
                    </g>
                </g>
            </g>
        </g>
        <path d="M524.986,111.004 L524.986,70.5 L544.906,70.5 L544.906,195 L529.136,195 L526.48,186.534 C521.832,191.846 513.2,196.328 503.904,196.328 C483.818,196.328 473.526,182.882 473.526,160.638 L473.526,137.398 C473.526,115.154 483.652,101.874 503.406,101.874 C512.37,101.874 520.338,106.19 524.986,111.004 Z M524.986,170.1 L524.986,127.936 C521.168,123.952 515.192,120.632 509.05,120.632 C497.928,120.632 493.446,126.774 493.446,139.556 L493.446,158.646 C493.446,171.428 497.928,177.57 509.05,177.57 C515.192,177.57 521.168,174.084 524.986,170.1 Z M583.086,139.224 C583.086,128.434 586.738,119.636 599.852,119.636 C606.658,119.636 611.97,122.458 616.95,129.762 L630.396,118.64 C623.922,108.846 614.626,101.874 599.852,101.874 C575.782,101.874 563.166,115.652 563.166,137.564 L563.166,160.638 C563.166,182.55 576.28,196.328 600.35,196.328 C615.124,196.328 624.586,188.858 630.562,179.396 L618.112,168.274 C611.804,176.906 606.824,178.566 600.35,178.566 C587.236,178.566 583.086,169.768 583.086,158.978 L583.086,139.224 Z M680.362,195.83 C685.84,195.83 692.812,194.502 699.95,191.016 L695.8,175.91 C691.816,177.072 687.002,178.068 682.354,178.068 C675.05,178.068 672.394,175.08 672.394,167.942 L672.394,119.968 L696.464,119.968 L696.464,103.202 L672.394,103.202 L672.394,83.448 L652.806,85.606 L652.806,103.202 L637.202,104.198 L637.202,119.968 L652.474,119.968 L652.474,168.274 C652.474,186.036 660.442,195.83 680.362,195.83 Z M712.4,163.46 L712.4,137.398 C712.4,115.486 723.688,101.874 747.26,101.874 C771.33,101.874 781.622,114.988 781.622,137.398 L781.622,156.322 L732.32,156.322 L732.32,165.286 C732.32,172.258 736.636,179.064 748.754,179.064 C759.212,179.064 764.358,176.74 772.99,172.092 L779.63,186.866 C770.334,192.178 761.868,196.328 747.924,196.328 C724.186,196.328 712.4,183.878 712.4,163.46 Z M747.26,119.138 C735.308,119.138 732.32,125.446 732.32,140.718 L762.2,140.718 C762.2,126.276 759.378,119.138 747.26,119.138 Z M815.652,139.224 C815.652,128.434 819.304,119.636 832.418,119.636 C839.224,119.636 844.536,122.458 849.516,129.762 L862.962,118.64 C856.488,108.846 847.192,101.874 832.418,101.874 C808.348,101.874 795.732,115.652 795.732,137.564 L795.732,160.638 C795.732,182.55 808.846,196.328 832.916,196.328 C847.69,196.328 857.152,188.858 863.128,179.396 L850.678,168.274 C844.37,176.906 839.39,178.566 832.916,178.566 C819.802,178.566 815.652,169.768 815.652,158.978 L815.652,139.224 Z M896.992,70.5 L877.072,70.5 L877.072,195 L896.992,195 L896.992,128.6 C900.146,125.446 907.284,121.13 914.422,121.13 C923.718,121.13 929.03,125.612 929.03,138.394 L929.03,195 L948.95,195 L948.95,134.078 C948.95,115.984 941.148,101.874 921.394,101.874 C910.604,101.874 902.138,106.854 896.992,111.336 L896.992,70.5 Z M969.368,195 L993.604,195 L993.604,170.266 L969.368,170.266 L969.368,195 Z M1050.376,195.83 C1055.854,195.83 1062.826,194.502 1069.964,191.016 L1065.814,175.91 C1061.83,177.072 1057.016,178.068 1052.368,178.068 C1045.064,178.068 1042.408,175.08 1042.408,167.942 L1042.408,119.968 L1066.478,119.968 L1066.478,103.202 L1042.408,103.202 L1042.408,83.448 L1022.82,85.606 L1022.82,103.202 L1007.216,104.198 L1007.216,119.968 L1022.488,119.968 L1022.488,168.274 C1022.488,186.036 1030.456,195.83 1050.376,195.83 Z M1126.902,195 L1155.122,103.202 L1133.708,103.202 L1116.776,168.108 L1116.112,168.108 C1099.346,104.032 1099.18,103.202 1099.18,103.202 L1077.932,103.202 L1105.986,195 L1126.902,195 Z" id="dctech.tv" fill="#FFFFFF"></path>
    </g>
</svg>