<svg viewBox="0 0 1155 266" xmlns="http://www.w3.org/2000/svg"><g fill="none" fill-rule="evenodd"><path d="M0 89h366v146.085c0 12.462-9.539 22.851-21.956 23.913C289.434 263.666 235.752 266 183 266c-52.752 0-106.433-2.334-161.044-7.002C9.539 257.936 0 247.548 0 235.085V89zM282.421 3.564a2750.147 2750.147 0 0 0-71.993 5.972l-22.08 47.35 72.836-7.777 21.237-45.545zm30.722-1.995A3223.27 3223.27 0 0 1 340.769.032c13.237-.68 24.52 9.5 25.2 22.737a24 24 0 0 1 .031 1.232v13.914l-73.464 7.845 20.607-44.19zM179.135 12.756c-22.552 2.468-45.963 5.344-70.233 8.63l-21.585 46.29 69.679-7.441 22.14-47.479zM77.022 25.866a3682.38 3682.38 0 0 0-56.849 8.739C8.546 36.483 0 46.52 0 58.298V77l55.965-5.976 21.057-45.157z" fill="#FFF"/><g fill-rule="nonzero" fill="#E81B39"><path d="M185.275 130.627l-14.004 43.098 23.615 7.673z"/><path d="M186.617 130.627l14.004 43.098-23.615 7.673z"/><path d="M229.404 160.65h-45.366v24.479z"/><path d="M229.747 161.705l-36.702 26.666-14.388-19.804z"/><path d="M212.829 212.154l-14.02-43.146-23.28 7.564z"/><path d="M211.93 212.806l-36.702-26.665 14.389-19.805z"/><path d="M158.07 212.806l36.702-26.665-14.389-19.805z"/><path d="M157.171 212.154l14.02-43.146 23.28 7.564z"/><g><path d="M140.253 161.705l36.702 26.666 14.388-19.804z"/><path d="M140.596 160.65h45.366v24.479z"/></g></g><g fill-rule="nonzero" fill="#E81B39"><path d="M69.275 129.627L55.27 172.725l23.615 7.673z"/><path d="M70.617 129.627l14.004 43.098-23.615 7.673z"/><path d="M113.404 159.65H68.038v24.479z"/><path d="M113.747 160.705l-36.702 26.666-14.388-19.804z"/><path d="M96.829 211.154l-14.02-43.146-23.28 7.564z"/><path d="M95.93 211.806l-36.702-26.665 14.389-19.805z"/><path d="M42.07 211.806l36.702-26.665-14.389-19.805z"/><path d="M41.171 211.154l14.02-43.146 23.28 7.564z"/><g><path d="M24.253 160.705l36.702 26.666 14.388-19.804z"/><path d="M24.596 159.65h45.366v24.479z"/></g></g><g fill-rule="nonzero" fill="#E81B39"><path d="M301.275 129.627l-14.004 43.098 23.615 7.673z"/><path d="M302.617 129.627l14.004 43.098-23.615 7.673z"/><path d="M345.404 159.65h-45.366v24.479z"/><path d="M345.747 160.705l-36.702 26.666-14.388-19.804z"/><path d="M328.829 211.154l-14.02-43.146-23.28 7.564z"/><path d="M327.93 211.806l-36.702-26.665 14.389-19.805z"/><path d="M274.07 211.806l36.702-26.665-14.389-19.805z"/><path d="M273.171 211.154l14.02-43.146 23.28 7.564z"/><g><path d="M256.253 160.705l36.702 26.666 14.388-19.804z"/><path d="M256.596 159.65h45.366v24.479z"/></g></g><path d="M524.986 111.004V70.5h19.92V195h-15.77l-2.656-8.466c-4.648 5.312-13.28 9.794-22.576 9.794-20.086 0-30.378-13.446-30.378-35.69v-23.24c0-22.244 10.126-35.524 29.88-35.524 8.964 0 16.932 4.316 21.58 9.13zm0 59.096v-42.164c-3.818-3.984-9.794-7.304-15.936-7.304-11.122 0-15.604 6.142-15.604 18.924v19.09c0 12.782 4.482 18.924 15.604 18.924 6.142 0 12.118-3.486 15.936-7.47zm58.1-30.876c0-10.79 3.652-19.588 16.766-19.588 6.806 0 12.118 2.822 17.098 10.126l13.446-11.122c-6.474-9.794-15.77-16.766-30.544-16.766-24.07 0-36.686 13.778-36.686 35.69v23.074c0 21.912 13.114 35.69 37.184 35.69 14.774 0 24.236-7.47 30.212-16.932l-12.45-11.122c-6.308 8.632-11.288 10.292-17.762 10.292-13.114 0-17.264-8.798-17.264-19.588v-19.754zm97.276 56.606c5.478 0 12.45-1.328 19.588-4.814l-4.15-15.106c-3.984 1.162-8.798 2.158-13.446 2.158-7.304 0-9.96-2.988-9.96-10.126v-47.974h24.07v-16.766h-24.07V83.448l-19.588 2.158v17.596l-15.604.996v15.77h15.272v48.306c0 17.762 7.968 27.556 27.888 27.556zm32.038-32.37v-26.062c0-21.912 11.288-35.524 34.86-35.524 24.07 0 34.362 13.114 34.362 35.524v18.924H732.32v8.964c0 6.972 4.316 13.778 16.434 13.778 10.458 0 15.604-2.324 24.236-6.972l6.64 14.774c-9.296 5.312-17.762 9.462-31.706 9.462-23.738 0-35.524-12.45-35.524-32.868zm34.86-44.322c-11.952 0-14.94 6.308-14.94 21.58h29.88c0-14.442-2.822-21.58-14.94-21.58zm68.392 20.086c0-10.79 3.652-19.588 16.766-19.588 6.806 0 12.118 2.822 17.098 10.126l13.446-11.122c-6.474-9.794-15.77-16.766-30.544-16.766-24.07 0-36.686 13.778-36.686 35.69v23.074c0 21.912 13.114 35.69 37.184 35.69 14.774 0 24.236-7.47 30.212-16.932l-12.45-11.122c-6.308 8.632-11.288 10.292-17.762 10.292-13.114 0-17.264-8.798-17.264-19.588v-19.754zm81.34-68.724h-19.92V195h19.92v-66.4c3.154-3.154 10.292-7.47 17.43-7.47 9.296 0 14.608 4.482 14.608 17.264V195h19.92v-60.922c0-18.094-7.802-32.204-27.556-32.204-10.79 0-19.256 4.98-24.402 9.462V70.5zM969.368 195h24.236v-24.734h-24.236V195zm81.008.83c5.478 0 12.45-1.328 19.588-4.814l-4.15-15.106c-3.984 1.162-8.798 2.158-13.446 2.158-7.304 0-9.96-2.988-9.96-10.126v-47.974h24.07v-16.766h-24.07V83.448l-19.588 2.158v17.596l-15.604.996v15.77h15.272v48.306c0 17.762 7.968 27.556 27.888 27.556zm76.526-.83l28.22-91.798h-21.414l-16.932 64.906h-.664c-16.766-64.076-16.932-64.906-16.932-64.906h-21.248L1105.986 195h20.916z" fill="#FFF"/></g></svg>