<?xml version="1.0" encoding="UTF-8"?>
<svg width="465px" height="465px" viewBox="0 0 465 465" version="1.1" xmlns="http://www.w3.org/2000/svg" xmlns:xlink="http://www.w3.org/1999/xlink">
    <!-- Generator: Sketch 46.2 (44496) - http://www.bohemiancoding.com/sketch -->
    <title>Slice</title>
    <desc>Created with Sketch.</desc>
    <defs></defs>
    <g id="Page-1" stroke="none" stroke-width="1" fill="none" fill-rule="evenodd">
        <path d="M48,184 L414,184 L414,330.084947 L414,330.084947 C414,342.547423 404.461281,352.936307 392.044088,353.99774 C337.433382,358.665913 283.75202,361 231,361 C178.24798,361 124.566618,358.665913 69.955913,353.99774 L69.955913,353.997741 C57.5387196,352.936308 48,342.547424 48,330.084947 L48,184 Z" id="Rectangle" fill="#000000"></path>
        <path d="M330.421493,98.5644845 C305.789364,100.290268 281.791588,102.280751 258.428164,104.535935 L236.348209,151.88655 L309.183961,144.108519 L330.421493,98.5644845 Z M361.143204,96.5690059 C370.268193,96.0219586 379.476662,95.5097453 388.768611,95.0323661 L388.768611,95.032367 C402.005986,94.3522891 413.288311,104.53199 413.968389,117.769365 C413.98946,118.179491 414,118.590089 414,119.000755 L414,132.915356 L340.536402,140.760434 L361.143204,96.5690059 Z M227.135329,107.756193 C204.583113,110.223563 181.172043,113.100357 156.902119,116.386576 L135.317234,162.675511 L204.995768,155.234635 L227.135329,107.756193 Z M125.021733,120.866843 C106.541203,123.555988 87.5917578,126.46867 68.1733961,129.60489 L68.1733961,129.60489 C56.5463151,131.482756 48.0000004,141.520115 48.0000004,153.297865 L48,153.297865 L48,172 L103.964793,166.023596 L125.021733,120.866843 Z" id="Combined-Shape" fill="#000000"></path>
        <g id="s" transform="translate(180.000000, 225.000000)" fill-rule="nonzero" fill="#FFFFFF">
            <g id="c" transform="translate(30.000000, 0.000000)">
                <polygon id="t" transform="translate(28.080439, 26.012802) rotate(18.000000) translate(-28.080439, -26.012802) " points="15.665456 3.35484998 15.665456 48.6707541 40.4954224 48.6707541"></polygon>
                <g id="t-link" transform="translate(19.587816, 26.000000) scale(-1, 1) translate(-19.587816, -26.000000) translate(0.087816, 0.000000)">
                    <polygon id="t" transform="translate(19.276315, 26.012802) rotate(18.000000) translate(-19.276315, -26.012802) " points="6.86133145 3.35484998 6.86133145 48.6707541 31.6912978 48.6707541"></polygon>
                </g>
            </g>
            <g id="c-link" transform="translate(73.500000, 39.000000) rotate(72.000000) translate(-73.500000, -39.000000) translate(50.000000, 13.000000)">
                <g id="c" transform="translate(0.000000, 0.000000)">
                    <polygon id="t" transform="translate(27.576057, 26.040635) rotate(18.000000) translate(-27.576057, -26.040635) " points="15.3364736 3.35750763 15.3364736 48.7237628 39.8156403 48.7237628"></polygon>
                    <g id="t-link" transform="translate(19.432292, 26.000000) scale(-1, 1) translate(-19.432292, -26.000000) translate(0.432292, 0.000000)">
                        <polygon id="t" transform="translate(19.008349, 26.040635) rotate(18.000000) translate(-19.008349, -26.040635) " points="6.76876531 3.35750763 6.76876531 48.7237628 31.247932 48.7237628"></polygon>
                    </g>
                </g>
            </g>
            <g id="c-link" transform="translate(65.500000, 62.000000) rotate(144.000000) translate(-65.500000, -62.000000) translate(42.000000, 36.000000)">
                <g id="c" transform="translate(-0.000000, 0.000000)">
                    <polygon id="t" transform="translate(27.576057, 26.040635) rotate(18.000000) translate(-27.576057, -26.040635) " points="15.3364736 3.35750763 15.3364736 48.7237628 39.8156403 48.7237628"></polygon>
                    <g id="t-link" transform="translate(19.432292, 26.000000) scale(-1, 1) translate(-19.432292, -26.000000) translate(0.432292, 0.000000)">
                        <polygon id="t" transform="translate(19.008349, 26.040635) rotate(18.000000) translate(-19.008349, -26.040635) " points="6.76876531 3.35750763 6.76876531 48.7237628 31.247932 48.7237628"></polygon>
                    </g>
                </g>
            </g>
            <g id="c-link" transform="translate(40.500000, 62.000000) rotate(-144.000000) translate(-40.500000, -62.000000) translate(17.000000, 36.000000)">
                <g id="c">
                    <polygon id="t" transform="translate(27.576057, 26.040635) rotate(18.000000) translate(-27.576057, -26.040635) " points="15.3364736 3.35750763 15.3364736 48.7237628 39.8156403 48.7237628"></polygon>
                    <g id="t-link" transform="translate(19.432292, 26.000000) scale(-1, 1) translate(-19.432292, -26.000000) translate(0.432292, 0.000000)">
                        <polygon id="t" transform="translate(19.008349, 26.040635) rotate(18.000000) translate(-19.008349, -26.040635) " points="6.76876531 3.35750763 6.76876531 48.7237628 31.247932 48.7237628"></polygon>
                    </g>
                </g>
            </g>
            <g id="c-link" transform="translate(32.500000, 39.000000) rotate(-72.000000) translate(-32.500000, -39.000000) translate(9.000000, 13.000000)">
                <g id="c" transform="translate(-0.000000, 0.000000)">
                    <polygon id="t" transform="translate(27.576057, 26.040635) rotate(18.000000) translate(-27.576057, -26.040635) " points="15.3364736 3.35750763 15.3364736 48.7237628 39.8156403 48.7237628"></polygon>
                    <g id="t-link" transform="translate(19.432292, 26.000000) scale(-1, 1) translate(-19.432292, -26.000000) translate(0.432292, -0.000000)">
                        <polygon id="t" transform="translate(19.008349, 26.040635) rotate(18.000000) translate(-19.008349, -26.040635) " points="6.76876531 3.35750763 6.76876531 48.7237628 31.247932 48.7237628"></polygon>
                    </g>
                </g>
            </g>
        </g>
        <g id="s" transform="translate(64.000000, 224.000000)" fill-rule="nonzero" fill="#FFFFFF">
            <g id="c" transform="translate(30.000000, 0.000000)">
                <polygon id="t" transform="translate(28.080439, 26.012802) rotate(18.000000) translate(-28.080439, -26.012802) " points="15.665456 3.35484998 15.665456 48.6707541 40.4954224 48.6707541"></polygon>
                <g id="t-link" transform="translate(19.587816, 26.000000) scale(-1, 1) translate(-19.587816, -26.000000) translate(0.087816, 0.000000)">
                    <polygon id="t" transform="translate(19.276315, 26.012802) rotate(18.000000) translate(-19.276315, -26.012802) " points="6.86133145 3.35484998 6.86133145 48.6707541 31.6912978 48.6707541"></polygon>
                </g>
            </g>
            <g id="c-link" transform="translate(73.500000, 39.000000) rotate(72.000000) translate(-73.500000, -39.000000) translate(50.000000, 13.000000)">
                <g id="c" transform="translate(0.000000, 0.000000)">
                    <polygon id="t" transform="translate(27.576057, 26.040635) rotate(18.000000) translate(-27.576057, -26.040635) " points="15.3364736 3.35750763 15.3364736 48.7237628 39.8156403 48.7237628"></polygon>
                    <g id="t-link" transform="translate(19.432292, 26.000000) scale(-1, 1) translate(-19.432292, -26.000000) translate(0.432292, 0.000000)">
                        <polygon id="t" transform="translate(19.008349, 26.040635) rotate(18.000000) translate(-19.008349, -26.040635) " points="6.76876531 3.35750763 6.76876531 48.7237628 31.247932 48.7237628"></polygon>
                    </g>
                </g>
            </g>
            <g id="c-link" transform="translate(65.500000, 62.000000) rotate(144.000000) translate(-65.500000, -62.000000) translate(42.000000, 36.000000)">
                <g id="c" transform="translate(-0.000000, 0.000000)">
                    <polygon id="t" transform="translate(27.576057, 26.040635) rotate(18.000000) translate(-27.576057, -26.040635) " points="15.3364736 3.35750763 15.3364736 48.7237628 39.8156403 48.7237628"></polygon>
                    <g id="t-link" transform="translate(19.432292, 26.000000) scale(-1, 1) translate(-19.432292, -26.000000) translate(0.432292, 0.000000)">
                        <polygon id="t" transform="translate(19.008349, 26.040635) rotate(18.000000) translate(-19.008349, -26.040635) " points="6.76876531 3.35750763 6.76876531 48.7237628 31.247932 48.7237628"></polygon>
                    </g>
                </g>
            </g>
            <g id="c-link" transform="translate(40.500000, 62.000000) rotate(-144.000000) translate(-40.500000, -62.000000) translate(17.000000, 36.000000)">
                <g id="c">
                    <polygon id="t" transform="translate(27.576057, 26.040635) rotate(18.000000) translate(-27.576057, -26.040635) " points="15.3364736 3.35750763 15.3364736 48.7237628 39.8156403 48.7237628"></polygon>
                    <g id="t-link" transform="translate(19.432292, 26.000000) scale(-1, 1) translate(-19.432292, -26.000000) translate(0.432292, 0.000000)">
                        <polygon id="t" transform="translate(19.008349, 26.040635) rotate(18.000000) translate(-19.008349, -26.040635) " points="6.76876531 3.35750763 6.76876531 48.7237628 31.247932 48.7237628"></polygon>
                    </g>
                </g>
            </g>
            <g id="c-link" transform="translate(32.500000, 39.000000) rotate(-72.000000) translate(-32.500000, -39.000000) translate(9.000000, 13.000000)">
                <g id="c" transform="translate(-0.000000, 0.000000)">
                    <polygon id="t" transform="translate(27.576057, 26.040635) rotate(18.000000) translate(-27.576057, -26.040635) " points="15.3364736 3.35750763 15.3364736 48.7237628 39.8156403 48.7237628"></polygon>
                    <g id="t-link" transform="translate(19.432292, 26.000000) scale(-1, 1) translate(-19.432292, -26.000000) translate(0.432292, -0.000000)">
                        <polygon id="t" transform="translate(19.008349, 26.040635) rotate(18.000000) translate(-19.008349, -26.040635) " points="6.76876531 3.35750763 6.76876531 48.7237628 31.247932 48.7237628"></polygon>
                    </g>
                </g>
            </g>
        </g>
        <g id="s" transform="translate(296.000000, 224.000000)" fill-rule="nonzero" fill="#FFFFFF">
            <g id="c" transform="translate(30.000000, 0.000000)">
                <polygon id="t" transform="translate(28.080439, 26.012802) rotate(18.000000) translate(-28.080439, -26.012802) " points="15.665456 3.35484998 15.665456 48.6707541 40.4954224 48.6707541"></polygon>
                <g id="t-link" transform="translate(19.587816, 26.000000) scale(-1, 1) translate(-19.587816, -26.000000) translate(0.087816, 0.000000)">
                    <polygon id="t" transform="translate(19.276315, 26.012802) rotate(18.000000) translate(-19.276315, -26.012802) " points="6.86133145 3.35484998 6.86133145 48.6707541 31.6912978 48.6707541"></polygon>
                </g>
            </g>
            <g id="c-link" transform="translate(73.500000, 39.000000) rotate(72.000000) translate(-73.500000, -39.000000) translate(50.000000, 13.000000)">
                <g id="c" transform="translate(0.000000, 0.000000)">
                    <polygon id="t" transform="translate(27.576057, 26.040635) rotate(18.000000) translate(-27.576057, -26.040635) " points="15.3364736 3.35750763 15.3364736 48.7237628 39.8156403 48.7237628"></polygon>
                    <g id="t-link" transform="translate(19.432292, 26.000000) scale(-1, 1) translate(-19.432292, -26.000000) translate(0.432292, 0.000000)">
                        <polygon id="t" transform="translate(19.008349, 26.040635) rotate(18.000000) translate(-19.008349, -26.040635) " points="6.76876531 3.35750763 6.76876531 48.7237628 31.247932 48.7237628"></polygon>
                    </g>
                </g>
            </g>
            <g id="c-link" transform="translate(65.500000, 62.000000) rotate(144.000000) translate(-65.500000, -62.000000) translate(42.000000, 36.000000)">
                <g id="c" transform="translate(-0.000000, 0.000000)">
                    <polygon id="t" transform="translate(27.576057, 26.040635) rotate(18.000000) translate(-27.576057, -26.040635) " points="15.3364736 3.35750763 15.3364736 48.7237628 39.8156403 48.7237628"></polygon>
                    <g id="t-link" transform="translate(19.432292, 26.000000) scale(-1, 1) translate(-19.432292, -26.000000) translate(0.432292, 0.000000)">
                        <polygon id="t" transform="translate(19.008349, 26.040635) rotate(18.000000) translate(-19.008349, -26.040635) " points="6.76876531 3.35750763 6.76876531 48.7237628 31.247932 48.7237628"></polygon>
                    </g>
                </g>
            </g>
            <g id="c-link" transform="translate(40.500000, 62.000000) rotate(-144.000000) translate(-40.500000, -62.000000) translate(17.000000, 36.000000)">
                <g id="c">
                    <polygon id="t" transform="translate(27.576057, 26.040635) rotate(18.000000) translate(-27.576057, -26.040635) " points="15.3364736 3.35750763 15.3364736 48.7237628 39.8156403 48.7237628"></polygon>
                    <g id="t-link" transform="translate(19.432292, 26.000000) scale(-1, 1) translate(-19.432292, -26.000000) translate(0.432292, 0.000000)">
                        <polygon id="t" transform="translate(19.008349, 26.040635) rotate(18.000000) translate(-19.008349, -26.040635) " points="6.76876531 3.35750763 6.76876531 48.7237628 31.247932 48.7237628"></polygon>
                    </g>
                </g>
            </g>
            <g id="c-link" transform="translate(32.500000, 39.000000) rotate(-72.000000) translate(-32.500000, -39.000000) translate(9.000000, 13.000000)">
                <g id="c" transform="translate(-0.000000, 0.000000)">
                    <polygon id="t" transform="translate(27.576057, 26.040635) rotate(18.000000) translate(-27.576057, -26.040635) " points="15.3364736 3.35750763 15.3364736 48.7237628 39.8156403 48.7237628"></polygon>
                    <g id="t-link" transform="translate(19.432292, 26.000000) scale(-1, 1) translate(-19.432292, -26.000000) translate(0.432292, -0.000000)">
                        <polygon id="t" transform="translate(19.008349, 26.040635) rotate(18.000000) translate(-19.008349, -26.040635) " points="6.76876531 3.35750763 6.76876531 48.7237628 31.247932 48.7237628"></polygon>
                    </g>
                </g>
            </g>
        </g>
    </g>
</svg>