<?xml version="1.0" encoding="UTF-8"?>
<svg width="465px" height="465px" viewBox="0 0 465 465" version="1.1" xmlns="http://www.w3.org/2000/svg" xmlns:xlink="http://www.w3.org/1999/xlink">
    <!-- Generator: Sketch 46.2 (44496) - http://www.bohemiancoding.com/sketch -->
    <title>Slice</title>
    <desc>Created with Sketch.</desc>
    <defs></defs>
    <g id="Page-1" stroke="none" stroke-width="1" fill="none" fill-rule="evenodd">
        <path d="M48,184 L414,184 L414,330.084947 L414,330.084947 C414,342.547423 404.461281,352.936307 392.044088,353.99774 C337.433382,358.665913 283.75202,361 231,361 C178.24798,361 124.566618,358.665913 69.955913,353.99774 L69.955913,353.997741 C57.5387196,352.936308 48,342.547424 48,330.084947 L48,184 Z" id="Rectangle" fill="#000000"></path>
        <path d="M330.421493,98.5644845 C305.789364,100.290268 281.791588,102.280751 258.428164,104.535935 L236.348209,151.88655 L309.183961,144.108519 L330.421493,98.5644845 Z M361.143204,96.5690059 C370.268193,96.0219586 379.476662,95.5097453 388.768611,95.0323661 L388.768611,95.032367 C402.005986,94.3522891 413.288311,104.53199 413.968389,117.769365 C413.98946,118.179491 414,118.590089 414,119.000755 L414,132.915356 L340.536402,140.760434 L361.143204,96.5690059 Z M227.135329,107.756193 C204.583113,110.223563 181.172043,113.100357 156.902119,116.386576 L135.317234,162.675511 L204.995768,155.234635 L227.135329,107.756193 Z M125.021733,120.866843 C106.541203,123.555988 87.5917578,126.46867 68.1733961,129.60489 L68.1733961,129.60489 C56.5463151,131.482756 48.0000004,141.520115 48.0000004,153.297865 L48,153.297865 L48,172 L103.964793,166.023596 L125.021733,120.866843 Z" id="Combined-Shape" fill="#000000"></path>
        <text id="dctech.tv" font-family="Noway-Medium, Noway" font-size="82" font-weight="400" fill="#FFFFFF">
            <tspan x="60.112" y="297">dctech.tv</tspan>
        </text>
    </g>
</svg>