<?xml version="1.0" encoding="UTF-8"?>
<svg width="312px" height="360px" viewBox="0 0 312 360" version="1.1" xmlns="http://www.w3.org/2000/svg" xmlns:xlink="http://www.w3.org/1999/xlink">
    <!-- Generator: Sketch 46.2 (44496) - http://www.bohemiancoding.com/sketch -->
    <title>Slice</title>
    <desc>Created with Sketch.</desc>
    <defs></defs>
    <g id="Page-1" stroke="none" stroke-width="1" fill="none" fill-rule="evenodd">
        <polygon id="Shape" fill="#000000" fill-rule="nonzero" points="0.2 89.5 0.2 269.5 156.2 359.5 312 269.5 312 89.5 156.2 -0.5"></polygon>
        <g id="Group" transform="translate(54.000000, 103.000000)">
            <path d="M0,49.84 L204.96,49.84 L204.96,131.647568 L204.960002,131.647568 C204.960002,138.626556 199.618319,144.444332 192.664689,145.038735 C162.082694,147.652912 132.021131,148.96 102.48,148.96 C72.9388689,148.96 42.877306,147.652912 12.2953113,145.038735 L12.2953113,145.038735 C5.34168297,144.444332 8.5467942e-16,138.626557 0,131.64757 L0,49.84 Z" id="Rectangle" fill="#FFFFFF"></path>
            <path d="M158.156036,1.9961113 C144.362044,2.96254981 130.923289,4.07722063 117.839772,5.34012375 L105.474997,31.856468 L146.263018,27.5007706 L158.156036,1.9961113 Z M175.360194,0.878643324 C180.470188,0.572296822 185.626931,0.285457377 190.830422,0.0181249887 L190.830422,0.0181255004 C198.243352,-0.362718104 204.561454,5.3379144 204.942298,12.7508446 C204.954097,12.9805147 204.96,13.2104499 204.96,13.4404229 L204.96,21.2325994 L163.820385,25.6258431 L175.360194,0.878643324 Z M100.315784,7.14346833 C87.6865433,8.52519525 74.576344,10.1362001 60.9851866,11.9764828 L48.8976512,37.8982861 L87.9176301,33.7313955 L100.315784,7.14346791 Z M43.1321703,14.4854319 C32.7830739,15.9913531 22.1713844,17.6224552 11.2971018,19.3787383 L11.2971018,19.3787383 C4.78593643,20.4303432 2.44428172e-07,26.0512645 2.44428175e-07,32.6468045 L0,32.6468045 L0,43.12 L31.340284,39.7732136 L43.1321703,14.4854319 Z" id="Combined-Shape" fill="#FFFFFF"></path>
            <path d="M23.08432,88.64448 L23.08432,77.44 L28.59472,77.44 L28.59472,111.88 L24.23232,111.88 L23.4976,109.53808 C22.21184,111.00752 19.824,112.24736 17.25248,112.24736 C11.69616,112.24736 8.84912,108.52784 8.84912,102.37456 L8.84912,95.94576 C8.84912,89.79248 11.65024,86.11888 17.11472,86.11888 C19.5944,86.11888 21.79856,87.3128 23.08432,88.64448 Z M23.08432,104.992 L23.08432,93.32832 C22.02816,92.22624 20.37504,91.30784 18.676,91.30784 C15.59936,91.30784 14.35952,93.00688 14.35952,96.54272 L14.35952,101.82352 C14.35952,105.35936 15.59936,107.0584 18.676,107.0584 C20.37504,107.0584 22.02816,106.09408 23.08432,104.992 Z M39.15632,96.45088 C39.15632,93.46608 40.16656,91.03232 43.79424,91.03232 C45.67696,91.03232 47.1464,91.81296 48.524,93.83344 L52.24352,90.7568 C50.45264,88.04752 47.88112,86.11888 43.79424,86.11888 C37.13584,86.11888 33.64592,89.93024 33.64592,95.99168 L33.64592,102.37456 C33.64592,108.436 37.2736,112.24736 43.932,112.24736 C48.01888,112.24736 50.63632,110.18096 52.28944,107.56352 L48.84544,104.48688 C47.10048,106.87472 45.72288,107.33392 43.932,107.33392 C40.30432,107.33392 39.15632,104.90016 39.15632,101.91536 L39.15632,96.45088 Z M66.06544,112.1096 C67.5808,112.1096 69.50944,111.74224 71.484,110.77792 L70.336,106.5992 C69.23392,106.92064 67.90224,107.19616 66.61648,107.19616 C64.596,107.19616 63.86128,106.3696 63.86128,104.39504 L63.86128,91.12416 L70.51968,91.12416 L70.51968,86.48624 L63.86128,86.48624 L63.86128,81.02176 L58.44272,81.61872 L58.44272,86.48624 L54.12624,86.76176 L54.12624,91.12416 L58.35088,91.12416 L58.35088,104.48688 C58.35088,109.40032 60.55504,112.1096 66.06544,112.1096 Z M74.928,103.1552 L74.928,95.94576 C74.928,89.88432 78.05056,86.11888 84.5712,86.11888 C91.2296,86.11888 94.07664,89.74656 94.07664,95.94576 L94.07664,101.18064 L80.4384,101.18064 L80.4384,103.66032 C80.4384,105.58896 81.63232,107.47168 84.98448,107.47168 C87.87744,107.47168 89.30096,106.8288 91.6888,105.54304 L93.5256,109.62992 C90.95408,111.09936 88.61216,112.24736 84.75488,112.24736 C78.18832,112.24736 74.928,108.80336 74.928,103.1552 Z M84.5712,90.89456 C81.26496,90.89456 80.4384,92.63952 80.4384,96.86416 L88.704,96.86416 C88.704,92.86912 87.92336,90.89456 84.5712,90.89456 Z M103.49024,96.45088 C103.49024,93.46608 104.50048,91.03232 108.12816,91.03232 C110.01088,91.03232 111.48032,91.81296 112.85792,93.83344 L116.57744,90.7568 C114.78656,88.04752 112.21504,86.11888 108.12816,86.11888 C101.46976,86.11888 97.97984,89.93024 97.97984,95.99168 L97.97984,102.37456 C97.97984,108.436 101.60752,112.24736 108.26592,112.24736 C112.3528,112.24736 114.97024,110.18096 116.62336,107.56352 L113.17936,104.48688 C111.4344,106.87472 110.0568,107.33392 108.26592,107.33392 C104.63824,107.33392 103.49024,104.90016 103.49024,101.91536 L103.49024,96.45088 Z M125.99104,77.44 L120.48064,77.44 L120.48064,111.88 L125.99104,111.88 L125.99104,93.512 C126.86352,92.63952 128.83808,91.4456 130.81264,91.4456 C133.38416,91.4456 134.8536,92.68544 134.8536,96.22128 L134.8536,111.88 L140.364,111.88 L140.364,95.02736 C140.364,90.02208 138.20576,86.11888 132.74128,86.11888 C129.75648,86.11888 127.41456,87.49648 125.99104,88.73632 L125.99104,77.44 Z M146.01216,111.88 L152.71648,111.88 L152.71648,105.03792 L146.01216,105.03792 L146.01216,111.88 Z M168.42112,112.1096 C169.93648,112.1096 171.86512,111.74224 173.83968,110.77792 L172.69168,106.5992 C171.5896,106.92064 170.25792,107.19616 168.97216,107.19616 C166.95168,107.19616 166.21696,106.3696 166.21696,104.39504 L166.21696,91.12416 L172.87536,91.12416 L172.87536,86.48624 L166.21696,86.48624 L166.21696,81.02176 L160.7984,81.61872 L160.7984,86.48624 L156.48192,86.76176 L156.48192,91.12416 L160.70656,91.12416 L160.70656,104.48688 C160.70656,109.40032 162.91072,112.1096 168.42112,112.1096 Z M189.59024,111.88 L197.39664,86.48624 L191.47296,86.48624 L186.78912,104.44096 L186.60544,104.44096 C181.96752,86.71584 181.9216,86.48624 181.9216,86.48624 L176.04384,86.48624 L183.80432,111.88 L189.59024,111.88 Z" id="dctech.tv" fill="#000000"></path>
        </g>
    </g>
</svg>